<mxfile host="65bd71144e">
    <diagram id="r1-FoAM5eQuzF6EVqPkF" name="Page-1">
        <mxGraphModel dx="2333" dy="1923" grid="1" gridSize="10" guides="1" tooltips="1" connect="1" arrows="1" fold="1" page="1" pageScale="1" pageWidth="850" pageHeight="1100" math="0" shadow="0">
            <root>
                <mxCell id="0"/>
                <mxCell id="1" parent="0"/>
                <mxCell id="2" value="" style="strokeWidth=1;shadow=0;dashed=0;align=center;html=1;shape=mxgraph.mockup.containers.browserWindow;rSize=0;strokeColor=#666666;strokeColor2=#008cff;strokeColor3=#c4c4c4;mainText=,;recursiveResize=0;container=0;fillColor=#000000;" parent="1" vertex="1">
                    <mxGeometry x="-400" y="-370" width="1200" height="800" as="geometry"/>
                </mxCell>
                <mxCell id="3" value="Page 1" style="strokeWidth=1;shadow=0;dashed=0;align=center;html=1;shape=mxgraph.mockup.containers.anchor;fontSize=17;fontColor=#666666;align=left;" parent="1" vertex="1">
                    <mxGeometry x="-340" y="-358" width="110" height="26" as="geometry"/>
                </mxCell>
                <mxCell id="4" value="https://www.draw.io" style="strokeWidth=1;shadow=0;dashed=0;align=center;html=1;shape=mxgraph.mockup.containers.anchor;rSize=0;fontSize=17;fontColor=#666666;align=left;" parent="1" vertex="1">
                    <mxGeometry x="-270" y="-310" width="250" height="26" as="geometry"/>
                </mxCell>
                <mxCell id="5" value="" style="rounded=0;whiteSpace=wrap;html=1;fillColor=#6b6570;" parent="1" vertex="1">
                    <mxGeometry x="-400" y="-260" width="1200" height="60" as="geometry"/>
                </mxCell>
                <mxCell id="9" value="Login" style="strokeWidth=1;shadow=0;dashed=0;align=center;html=1;shape=mxgraph.mockup.buttons.button;strokeColor=#666666;fontColor=#ffffff;mainText=;buttonStyle=round;fontSize=17;fontStyle=1;fillColor=#008cff;whiteSpace=wrap;" parent="1" vertex="1">
                    <mxGeometry x="720" y="-238.75" width="60" height="20" as="geometry"/>
                </mxCell>
                <mxCell id="10" value="********" style="strokeWidth=1;shadow=0;dashed=0;align=center;html=1;shape=mxgraph.mockup.forms.pwField;strokeColor=#999999;mainText=;align=left;fontColor=#666666;fontSize=17;spacingLeft=3;fillColor=#3399FF;" parent="1" vertex="1">
                    <mxGeometry x="650" y="-238.75" width="60" height="20" as="geometry"/>
                </mxCell>
                <mxCell id="11" value="username" style="strokeWidth=1;shadow=0;dashed=0;align=center;html=1;shape=mxgraph.mockup.text.textBox;fontColor=#666666;align=left;fontSize=17;spacingLeft=4;spacingTop=-3;strokeColor=#666666;mainText=;fillColor=#3399FF;" parent="1" vertex="1">
                    <mxGeometry x="540" y="-238.75" width="90" height="20" as="geometry"/>
                </mxCell>
                <mxCell id="16" value="Logo" style="rounded=1;whiteSpace=wrap;html=1;fillColor=#3399FF;" parent="1" vertex="1">
                    <mxGeometry x="-40" y="-250" width="350" height="40" as="geometry"/>
                </mxCell>
                <mxCell id="18" value="Pizza image" style="ellipse;whiteSpace=wrap;html=1;aspect=fixed;fillColor=#3399FF;" parent="1" vertex="1">
                    <mxGeometry x="-310" y="-90" width="80" height="80" as="geometry"/>
                </mxCell>
                <mxCell id="20" value="Add" style="strokeWidth=1;shadow=0;dashed=0;align=center;html=1;shape=mxgraph.mockup.buttons.button;strokeColor=#666666;fontColor=#ffffff;mainText=;buttonStyle=round;fontSize=17;fontStyle=1;fillColor=#008cff;whiteSpace=wrap;" parent="1" vertex="1">
                    <mxGeometry x="40" y="-65" width="118" height="30" as="geometry"/>
                </mxCell>
                <mxCell id="33" value="&lt;h1&gt;Pizza description&lt;/h1&gt;" style="text;html=1;strokeColor=none;fillColor=black;spacing=5;spacingTop=-20;whiteSpace=wrap;overflow=hidden;rounded=0;shadow=1;" parent="1" vertex="1">
                    <mxGeometry x="-200" y="-110" width="220" height="120" as="geometry"/>
                </mxCell>
                <mxCell id="36" value="Pizza image" style="ellipse;whiteSpace=wrap;html=1;aspect=fixed;fillColor=#3399FF;" parent="1" vertex="1">
                    <mxGeometry x="-310" y="80" width="80" height="80" as="geometry"/>
                </mxCell>
                <mxCell id="37" value="Add" style="strokeWidth=1;shadow=0;dashed=0;align=center;html=1;shape=mxgraph.mockup.buttons.button;strokeColor=#666666;fontColor=#ffffff;mainText=;buttonStyle=round;fontSize=17;fontStyle=1;fillColor=#008cff;whiteSpace=wrap;" parent="1" vertex="1">
                    <mxGeometry x="40" y="105" width="118" height="30" as="geometry"/>
                </mxCell>
                <mxCell id="39" value="Pizza image" style="ellipse;whiteSpace=wrap;html=1;aspect=fixed;fillColor=#3399FF;" parent="1" vertex="1">
                    <mxGeometry x="-310" y="270" width="80" height="80" as="geometry"/>
                </mxCell>
                <mxCell id="40" value="Add" style="strokeWidth=1;shadow=0;dashed=0;align=center;html=1;shape=mxgraph.mockup.buttons.button;strokeColor=#666666;fontColor=#ffffff;mainText=;buttonStyle=round;fontSize=17;fontStyle=1;fillColor=#008cff;whiteSpace=wrap;" parent="1" vertex="1">
                    <mxGeometry x="40" y="295" width="118" height="30" as="geometry"/>
                </mxCell>
                <mxCell id="42" value="" style="rounded=1;whiteSpace=wrap;html=1;shadow=1;strokeColor=#000000;fillColor=#6b6570;" parent="1" vertex="1">
                    <mxGeometry x="620" y="-180" width="170" height="510" as="geometry"/>
                </mxCell>
                <mxCell id="43" value="&lt;b&gt;Shopping Cart&lt;/b&gt;" style="text;html=1;strokeColor=none;fillColor=black;align=center;verticalAlign=middle;whiteSpace=wrap;rounded=0;shadow=1;" parent="1" vertex="1">
                    <mxGeometry x="675" y="-170" width="60" height="30" as="geometry"/>
                </mxCell>
                <mxCell id="47" value="Checkout" style="strokeWidth=1;shadow=0;dashed=0;align=center;html=1;shape=mxgraph.mockup.buttons.button;strokeColor=#666666;fontColor=#ffffff;mainText=;buttonStyle=round;fontSize=17;fontStyle=1;fillColor=#008cff;whiteSpace=wrap;" parent="1" vertex="1">
                    <mxGeometry x="630" y="270" width="150" height="50" as="geometry"/>
                </mxCell>
                <mxCell id="50" value="&lt;h1&gt;Pizza description&lt;/h1&gt;" style="text;html=1;strokeColor=none;fillColor=black;spacing=5;spacingTop=-20;whiteSpace=wrap;overflow=hidden;rounded=0;shadow=1;" parent="1" vertex="1">
                    <mxGeometry x="-200" y="60" width="220" height="120" as="geometry"/>
                </mxCell>
                <mxCell id="51" value="&lt;h1&gt;Pizza description&lt;/h1&gt;" style="text;html=1;strokeColor=none;fillColor=black;spacing=5;spacingTop=-20;whiteSpace=wrap;overflow=hidden;rounded=0;shadow=1;" parent="1" vertex="1">
                    <mxGeometry x="-200" y="250" width="220" height="120" as="geometry"/>
                </mxCell>
            </root>
        </mxGraphModel>
    </diagram>
</mxfile>